<?xml version="1.0" encoding="UTF-8"?>
<svg id="Layer_1" data-name="Layer 1" xmlns="http://www.w3.org/2000/svg" viewBox="0 0 564.85 184.65">
  <defs>
    <style>
      .cls-1 {
        fill: #690ed8;
      }

      .cls-1, .cls-2 {
        fill-rule: evenodd;
      }
    </style>
  </defs>
  <path class="cls-2" d="M458.41,39.96h-43.02l106.44,144.69h43.02l-106.44-144.69h0ZM0,0h82.11c92.21,0,92.21,128.8,0,128.8h-42.96v55.85H0V0h0ZM39.15,34.13v60.55h42.96c39.14,0,39.14-60.55,0-60.55h-42.96ZM203.02,104.43v80.23h-36.33v-86.39c0-19.27,15.73-76.02,94.74-58.81l-4.57,34.17c-18.86-7.51-53.84-3.96-53.84,30.8h0ZM340.96,36.97c44.63,0,81.1,41.33,73.12,87.78h-112.79c10.25,35.75,59.99,41.18,77.34,9.59l29.9,13.43c-12.95,23.57-38.35,39.59-67.57,39.59-42.36,0-76.7-33.67-76.7-75.2s32.06-75.2,76.7-75.2h0ZM302.23,96.69h74.67c-5.8-16.01-20.33-27.36-37.34-27.36s-31.54,11.35-37.34,27.36h0Z"/>
  <polygon class="cls-1" points="521.83 39.96 564.85 39.96 458.41 184.65 415.4 184.65 521.83 39.96 521.83 39.96"/>
</svg>