<?xml version="1.0" encoding="UTF-8"?>
<svg id="Layer_1" data-name="Layer 1" xmlns="http://www.w3.org/2000/svg" viewBox="0 0 1182.23 226.42">
  <defs>
    <style>
      .cls-1 {
        fill: #cbc807;
      }

      .cls-2 {
        fill: #02437b;
      }
    </style>
  </defs>
  <path class="cls-1" d="M43.5,67.59c19.48,28.34,38.16,57.25,56.42,86.38l2.55.65,57.03-87.04h43.5v155.5c0,.11-1.39,1.5-1.5,1.5h-41c-.11,0-1.5-1.39-1.5-1.5v-84.5l-3.05.66-52.45,81.34-2.97,1.05-53.48-82.39-3.05-.66v84.5c0,.11-1.39,1.5-1.5,1.5H1.5c-.11,0-1.5-1.39-1.5-1.5V67.59h43.5Z"/>
  <path class="cls-2" d="M423.5,223.59c-2.22-.69-1.42-5.95-1.51-8-.82-.86-18.63,7.68-21.95,8.54-31.85,8.23-66.64-3.67-85.88-30.21-47.1-65,16.9-150.36,93.11-124.11,3.31,1.14,9,4.95,11.44,5.59,1.37.36,3.29-.4,3.29-1.32V3.09c0-.11,1.39-1.5,1.5-1.5h41c.11,0,1.5,1.39,1.5,1.5v219c0,.11-1.39,1.5-1.5,1.5h-41ZM348.35,115.94c-39.66,41.13,24.76,101.68,63.16,57.66,35.86-41.11-24.9-97.34-63.16-57.66Z"/>
  <path class="cls-2" d="M775,160.59c4.05,13.09,16.71,23.69,29.95,26.55,10.67,2.31,21.99,1.05,31.38-4.73,3.42-2.11,9.18-8.86,12.14-8.89l33.26,10.84c1.12.56,2.32.99,2.17,2.56-.61,6.33-20.7,23.83-26.58,27.47-69.9,43.25-152.32-32.93-114.83-105.83,34.28-66.66,135-53.94,150.86,19.18.93,4.27,3.9,32.84-.84,32.84h-117.5ZM854,131.59c-5.55-20.79-29.33-32.9-49.98-27.48-12.44,3.27-26.79,14.46-29.02,27.48h79Z"/>
  <path class="cls-2" d="M668,127.09c-1.35-9.47-9.71-20.06-19.59-21.41-18-2.46-31.82,5.44-33.45,24.38-2.41,28.13,2.31,59.84.09,88.08-.15,1.93-.59,3.62-1.05,5.45h-42.5c-.11,0-1.5-1.39-1.5-1.5V69.09c0-.11,1.39-1.5,1.5-1.5h42.5c-.32.98,1,2.17,1,2.5v18.5l12.52-12.98c33.97-26.39,85.48-3.57,85.48,40.48v106c0,.11-1.39,1.5-1.5,1.5h-42c-.11,0-1.5-1.39-1.5-1.5v-95Z"/>
  <path class="cls-2" d="M1158.65,203.24c-37.74,37.39-103.09,28.39-128.17-18.63-37.55-70.4,37.79-147.58,108.54-110.54,47.82,25.04,58.27,90.89,19.63,129.17ZM1098.8,102.89c-60.28,5.12-47.47,97.13,12.25,84.25,51.39-11.08,38.09-88.53-12.25-84.25Z"/>
  <path class="cls-2" d="M1010,64.59v46c-18.63,1.66-34.18,5.79-42.88,23.62-2.54,5.22-6.12,16.28-6.12,21.88v66c0,.11-1.39,1.5-1.5,1.5h-42c-.11,0-1.5-1.39-1.5-1.5V69.09c0-.11,1.39-1.5,1.5-1.5h42c.11,0,1.5,1.39,1.5,1.5v27.5l9.02-14.48c9.93-12.36,24.12-18.33,39.98-17.52Z"/>
  <path class="cls-1" d="M278,68.59v154.5c0,.11-1.39,1.5-1.5,1.5h-42c-.11,0-1.5-1.39-1.5-1.5V68.59h45Z"/>
  <path class="cls-2" d="M540,68.59v153.5c0,.11-1.39,1.5-1.5,1.5h-42.5V68.59h44Z"/>
  <path class="cls-2" d="M534.66,41.25c-10.57,10.23-29.41,7.84-37.07-4.74-14.88-24.45,17.18-48.47,36.91-29.91,9.53,8.97,9.57,25.54.16,34.65Z"/>
  <path class="cls-1" d="M248.73.83c38.01-6.96,39.93,46.85,6.77,46.85-29.86,0-30.48-42.51-6.77-46.85Z"/>
</svg>