<?xml version="1.0" encoding="utf-8"?>
<!-- Generator: Adobe Illustrator 15.1.0, SVG Export Plug-In . SVG Version: 6.00 Build 0)  -->
<!DOCTYPE svg PUBLIC "-//W3C//DTD SVG 1.1//EN" "http://www.w3.org/Graphics/SVG/1.1/DTD/svg11.dtd" [
	<!ENTITY ns_extend "http://ns.adobe.com/Extensibility/1.0/">
	<!ENTITY ns_ai "http://ns.adobe.com/AdobeIllustrator/10.0/">
	<!ENTITY ns_graphs "http://ns.adobe.com/Graphs/1.0/">
	<!ENTITY ns_vars "http://ns.adobe.com/Variables/1.0/">
	<!ENTITY ns_imrep "http://ns.adobe.com/ImageReplacement/1.0/">
	<!ENTITY ns_sfw "http://ns.adobe.com/SaveForWeb/1.0/">
	<!ENTITY ns_custom "http://ns.adobe.com/GenericCustomNamespace/1.0/">
	<!ENTITY ns_adobe_xpath "http://ns.adobe.com/XPath/1.0/">
]>
<svg version="1.1" id="Layer_1" xmlns:x="&ns_extend;" xmlns:i="&ns_ai;" xmlns:graph="&ns_graphs;"
	 xmlns="http://www.w3.org/2000/svg" xmlns:xlink="http://www.w3.org/1999/xlink" x="0px" y="0px" width="39.685px"
	 height="28.35px" viewBox="0 0 39.685 28.35" enable-background="new 0 0 39.685 28.35" xml:space="preserve">
<metadata>
	<sfw  xmlns="&ns_sfw;">
		<slices>
			<slice  y="-29" x="36" width="41" height="29" sliceID="1461363117"></slice>
		</slices>
		<sliceSourceBounds  y="-29" x="36" width="41" height="29" bottomLeftOrigin="true"></sliceSourceBounds>
	</sfw>
</metadata>
<g>
	<path fill="#114420" d="M39.685,25.289c0,1.689-1.35,3.061-3.016,3.061H3.016C1.35,28.35,0,26.979,0,25.289V3.06
		c0-1.688,1.35-3.058,3.016-3.058h33.653c1.666,0,3.016,1.369,3.016,3.058V25.289z"/>
	<polygon fill="#F3E816" points="22.049,2.134 20.062,2.134 15.188,9.851 17.176,9.851 	"/>
	<polygon fill="#F3E816" points="9.785,18.932 4.912,26.121 6.899,26.121 11.44,18.932 	"/>
	<path fill="#F3E816" d="M21.311,9.851l4.862-7.698c-0.164-0.005-0.325-0.019-0.49-0.019h-1.789L19.02,9.851H21.311z"/>
	<polygon fill="#F3E816" points="13.285,18.932 8.743,26.121 11.034,26.121 15.575,18.932 	"/>
	<polygon fill="#F3E816" points="5.961,12.064 2.527,12.064 2.527,13.07 3.679,13.07 3.679,16.141 4.808,16.141 4.808,13.07 
		5.961,13.07 	"/>
	<path fill="#F3E816" d="M6.912,16.141l0.178-0.674h1.283l0.183,0.674h1.183l-1.373-4.077H7.133l-1.374,4.077H6.912z M7.734,13.121
		l0.404,1.465H7.336L7.734,13.121z"/>
	<path fill="#F3E816" d="M11.247,14.486h0.101c0.103,0,0.195,0.031,0.276,0.094c0.06,0.049,0.128,0.153,0.205,0.314l0.604,1.247
		h1.275l-0.547-1.182c-0.026-0.059-0.078-0.143-0.157-0.253c-0.079-0.109-0.14-0.181-0.182-0.214
		c-0.062-0.051-0.159-0.101-0.293-0.15c0.167-0.043,0.299-0.097,0.396-0.162c0.151-0.102,0.271-0.234,0.356-0.398
		s0.13-0.359,0.13-0.586c0-0.26-0.057-0.479-0.17-0.66s-0.262-0.305-0.446-0.371s-0.451-0.1-0.801-0.1h-1.882v4.077h1.134V14.486z
		 M11.247,12.886h0.496c0.207,0,0.347,0.035,0.422,0.105c0.075,0.071,0.112,0.172,0.112,0.304c0,0.089-0.023,0.168-0.071,0.236
		c-0.047,0.069-0.108,0.111-0.183,0.128c-0.148,0.037-0.249,0.056-0.3,0.056h-0.477V12.886z"/>
	<path fill="#F3E816" d="M14.449,16.043c0.203,0.111,0.489,0.168,0.857,0.168c0.35,0,0.636-0.086,0.859-0.254
		c0.225-0.168,0.372-0.375,0.446-0.617s0.111-0.596,0.111-1.061v-2.215h-1.133v2.512c0,0.248-0.028,0.424-0.089,0.53
		c-0.059,0.104-0.15,0.156-0.277,0.156c-0.079,0-0.142-0.018-0.185-0.053c-0.063-0.055-0.107-0.125-0.135-0.211
		c-0.026-0.088-0.04-0.221-0.042-0.4l-1.08,0.164c0.021,0.315,0.085,0.581,0.196,0.793C14.09,15.77,14.247,15.932,14.449,16.043z"/>
	<polygon fill="#F3E816" points="20.502,12.934 20.502,12.064 17.475,12.064 17.475,16.141 20.557,16.141 20.557,15.217 
		18.605,15.217 18.605,14.414 20.364,14.414 20.364,13.582 18.605,13.582 18.605,12.934 	"/>
	<polygon fill="#F3E816" points="20.908,13.07 22.06,13.07 22.06,16.141 23.189,16.141 23.189,13.07 24.342,13.07 24.342,12.064 
		20.908,12.064 	"/>
	<path fill="#F3E816" d="M25.293,16.141l0.179-0.674h1.282l0.184,0.674h1.182l-1.373-4.077h-1.232l-1.374,4.077H25.293z
		 M26.116,13.121l0.403,1.465h-0.804L26.116,13.121z"/>
	<path fill="#F3E816" d="M23.154,9.851h2.9c1.455,0,4.559,0.627,4.559,4.267c0,3.64-3.128,4.814-4.559,4.814H17.42l-4.541,7.189
		h12.804c0.106,0,0.223-0.012,0.332-0.016c0.153,0.01,0.322,0.016,0.513,0.016c6.263,0,11.339-5.369,11.339-11.994
		c0-6.108-4.317-11.149-9.901-11.897C27.947,2.228,23.154,9.851,23.154,9.851z"/>
	<rect id="slice_tarjeta_d" y="0" fill="none" width="39.686" height="28.347"/>
</g>
</svg>
